<?xml version="1.0" encoding="UTF-8"?><svg id="Layer_1" xmlns="http://www.w3.org/2000/svg" viewBox="0 0 120 80"><path d="M73.52,40.49l10.6-1.58-10.6-1.58c-7.03-1.04-12.44-6.75-13.12-13.82l-1.54-16.05-1.54,16.05c-.68,7.07-6.09,12.77-13.12,13.82l-10.6,1.58,10.6,1.58c7.03,1.04,12.44,6.74,13.12,13.82l1.54,16.05,1.54-16.05c.68-7.07,6.09-12.77,13.12-13.82Z"/><path d="M13.95,48.72c-1.28-7.48,14.91-16.61,37.11-21.4-25.27,5.25-43.89,14.78-42.61,22.27,1.13,6.62,17.45,9.59,38.87,7.82-18.36,1.09-32.26-2.2-33.37-8.69Z"/><path d="M111.55,31.98c-1.31-7.68-23.09-10.45-49.58-6.59,23.2-3.18,42.28.04,43.58,7.68,1.07,6.27-10.21,13.67-26.94,18.73-.46-.88-.81-1.82-.91-2.86l-.78-8.08-.77,8.08c-.34,3.56-3.07,6.43-6.6,6.96l-5.33.79,5.33.79c3.54.53,6.26,3.4,6.6,6.96l.77,8.08.78-8.08c.34-3.56,3.07-6.43,6.6-6.96l5.34-.79-5.34-.79c-2.48-.37-4.5-1.92-5.64-4.02,20.11-5.44,33.98-13.43,32.88-19.91Z"/></svg>